<svg width="70" height="69" viewBox="0 0 70 69" fill="none" xmlns="http://www.w3.org/2000/svg">
<g filter="url(#filter0_d)">
<path d="M35 0.09375C16.2695 0.09375 1.09375 15.2695 1.09375 34C1.09375 52.7305 16.2695 67.9062 35 67.9062C53.7305 67.9062 68.9062 52.7305 68.9062 34C68.9062 15.2695 53.7305 0.09375 35 0.09375ZM50.8594 40.0156H35V49.709C35 51.1719 33.2227 51.9102 32.1973 50.8711L16.5703 35.1621C15.9277 34.5195 15.9277 33.4941 16.5703 32.8516L32.1973 17.1289C33.2363 16.0898 35 16.8281 35 18.291V27.9844H50.8594C51.7617 27.9844 52.5 28.7227 52.5 29.625V38.375C52.5 39.2773 51.7617 40.0156 50.8594 40.0156Z" fill="black"/>
</g>
<defs>
<filter id="filter0_d" x="-2.90625" y="0.09375" width="75.8125" height="75.8125" filterUnits="userSpaceOnUse" color-interpolation-filters="sRGB">
<feFlood flood-opacity="0" result="BackgroundImageFix"/>
<feColorMatrix in="SourceAlpha" type="matrix" values="0 0 0 0 0 0 0 0 0 0 0 0 0 0 0 0 0 0 127 0"/>
<feOffset dy="4"/>
<feGaussianBlur stdDeviation="2"/>
<feColorMatrix type="matrix" values="0 0 0 0 0 0 0 0 0 0 0 0 0 0 0 0 0 0 0.25 0"/>
<feBlend mode="normal" in2="BackgroundImageFix" result="effect1_dropShadow"/>
<feBlend mode="normal" in="SourceGraphic" in2="effect1_dropShadow" result="shape"/>
</filter>
</defs>
</svg>
